<?xml version="1.0" standalone="no"?>
<!DOCTYPE svg PUBLIC "-//W3C//DTD SVG 20010904//EN"
 "http://www.w3.org/TR/2001/REC-SVG-20010904/DTD/svg10.dtd">
<svg version="1.0" xmlns="http://www.w3.org/2000/svg"
 width="1665.000000pt" height="1665.000000pt" viewBox="0 0 1665.000000 1665.000000"
 preserveAspectRatio="xMidYMid meet">
<metadata>
Created by potrace 1.14, written by Peter Selinger 2001-2017
</metadata>
<g transform="translate(0.000000,1665.000000) scale(0.100000,-0.100000)"
fill="#000000" stroke="none">
<path d="M7795 13530 c3 -5 8 -10 11 -10 2 0 4 5 4 10 0 6 -5 10 -11 10 -5 0
-7 -4 -4 -10z"/>
<path d="M7826 13532 c-3 -5 1 -9 9 -9 8 0 15 4 15 9 0 4 -4 8 -9 8 -6 0 -12
-4 -15 -8z"/>
<path d="M7870 13530 c-12 -7 -10 -9 7 -7 12 0 19 5 17 9 -6 10 -6 10 -24 -2z"/>
<path d="M7919 13528 c-6 -21 -5 -38 1 -38 5 0 8 9 7 20 -1 17 -5 26 -8 18z"/>
<path d="M7963 13513 c-7 -2 -13 -11 -13 -19 0 -13 -18 -19 -49 -14 -12 1 -13
-1 -2 -14 7 -8 18 -13 26 -10 7 3 16 1 20 -5 9 -15 -29 -9 -49 8 -12 10 -13
18 -6 32 8 15 7 17 -4 13 -8 -3 -13 -16 -11 -29 1 -14 -2 -22 -8 -18 -5 3 -14
-1 -19 -8 -10 -14 -8 -7 9 39 3 9 -6 4 -20 -13 -15 -17 -27 -24 -27 -16 0 11
-3 11 -17 0 -14 -12 -16 -12 -9 1 4 8 0 6 -8 -4 -9 -11 -16 -15 -16 -9 0 7
-13 11 -30 11 -23 -1 -31 -7 -39 -30 -10 -29 -35 -38 -44 -15 -4 9 -8 8 -16
-3 -8 -12 -11 -12 -11 -1 0 7 -6 11 -14 8 -8 -3 -16 2 -19 14 -4 13 -10 17
-23 12 -10 -4 -15 -2 -11 3 3 6 -12 9 -36 8 -31 -1 -41 -5 -39 -17 2 -10 -5
-14 -23 -13 -14 0 -25 4 -25 9 0 4 -5 7 -11 7 -5 0 -8 -4 -4 -9 3 -5 1 -13 -5
-16 -6 -4 -9 -1 -8 6 2 10 -15 13 -72 11 -41 -1 -90 -2 -108 -2 -18 0 -30 -5
-27 -10 3 -5 -7 -5 -25 0 -16 5 -30 5 -30 1 0 -12 -50 -32 -62 -25 -6 4 -8 2
-5 -3 4 -6 0 -13 -8 -17 -8 -3 -15 -12 -15 -20 0 -7 -8 -17 -17 -20 -15 -6
-15 -9 -3 -16 11 -7 8 -10 -13 -15 -15 -4 -27 -11 -27 -16 0 -5 8 -6 18 -3 14
5 14 4 2 -5 -11 -7 -20 -5 -34 7 -19 17 -19 16 -3 -9 16 -24 14 -39 -5 -39 -5
0 -6 5 -2 12 4 7 3 8 -4 4 -6 -4 -8 -14 -5 -24 3 -9 2 -14 -2 -10 -5 5 -15 -1
-22 -12 -8 -11 -19 -18 -24 -15 -5 4 -9 1 -9 -5 0 -6 -5 -8 -12 -3 -7 4 -19 8
-26 9 -11 2 -11 -1 -1 -13 10 -12 10 -16 -2 -24 -14 -9 -28 -12 -41 -10 -5 0
-8 -4 -8 -11 0 -6 -3 -9 -6 -5 -8 8 -33 -16 -27 -25 2 -5 -9 -8 -26 -8 -16 0
-33 -5 -36 -10 -5 -8 -11 -7 -21 1 -12 10 -16 8 -21 -9 -5 -20 -15 -26 -35
-23 -5 0 -8 -9 -8 -22 0 -18 2 -19 10 -7 6 9 10 10 10 3 0 -6 -4 -14 -10 -18
-5 -3 -6 -13 -3 -23 6 -15 5 -15 -10 -3 -15 12 -17 12 -11 -3 4 -10 1 -16 -7
-16 -7 0 -10 -3 -6 -6 8 -8 -16 -33 -25 -27 -5 2 -8 -2 -8 -11 0 -8 -6 -17
-12 -19 -10 -4 -10 -6 0 -6 7 -1 10 -6 6 -13 -4 -6 -8 -36 -10 -67 -2 -31 -4
-65 -6 -76 -3 -21 -47 -62 -60 -58 -5 2 -8 -2 -8 -7 0 -5 -5 -9 -12 -7 -7 1
-12 -4 -13 -12 0 -8 -6 -16 -14 -19 -8 -3 -11 0 -8 5 3 5 -3 9 -14 9 -19 0
-18 -1 3 -18 16 -13 18 -16 5 -12 -10 4 -17 3 -16 -2 3 -20 -2 -35 -10 -30 -7
5 -22 -28 -20 -43 0 -2 -4 -7 -10 -10 -6 -4 -13 -18 -15 -31 -2 -14 -5 -25 -6
-25 -1 0 -3 -9 -5 -20 -2 -11 -8 -21 -14 -23 -5 -2 -8 -9 -5 -16 3 -8 -10 -23
-30 -36 -20 -12 -36 -29 -36 -38 0 -15 -2 -15 -10 -2 -9 14 -14 7 -11 -14 3
-13 -20 -36 -30 -31 -4 3 -6 -4 -4 -17 3 -12 -1 -25 -7 -29 -6 -4 -11 -28 -11
-54 0 -25 -3 -41 -7 -35 -5 7 -9 4 -13 -9 -3 -11 1 -25 10 -32 10 -9 11 -14 3
-19 -8 -5 -6 -9 5 -13 9 -4 13 -3 10 3 -3 6 -2 10 3 10 5 0 9 -31 9 -70 0 -42
-4 -70 -10 -70 -6 0 -7 -3 -4 -6 4 -4 14 -1 23 7 15 12 16 11 9 -11 -4 -14
-12 -27 -16 -28 -5 -2 -7 -7 -4 -12 2 -4 -4 -18 -15 -30 -11 -13 -20 -31 -20
-41 0 -10 -5 -21 -11 -24 -11 -8 -33 -55 -31 -67 1 -5 -2 -8 -7 -8 -5 0 -8
-12 -5 -26 3 -16 1 -23 -6 -19 -6 4 -10 -7 -11 -27 0 -18 -2 -43 -3 -55 -2
-13 1 -23 6 -23 4 0 8 15 8 33 1 17 8 43 16 57 l15 25 -5 -25 c-3 -14 0 -39 6
-56 13 -37 -6 -124 -27 -124 -26 0 15 -227 48 -262 7 -7 12 -25 11 -41 -1 -15
1 -25 4 -23 5 5 37 -23 37 -33 1 -15 27 -51 36 -51 6 0 7 6 3 13 -4 6 2 3 14
-7 12 -11 20 -22 17 -25 -4 -3 -10 1 -15 9 -6 10 -10 11 -10 3 0 -7 9 -17 21
-23 11 -6 18 -17 16 -23 -2 -7 2 -24 9 -38 7 -15 10 -29 7 -33 -4 -3 -2 -6 4
-6 6 0 16 -37 23 -82 11 -76 47 -195 56 -185 2 2 -3 24 -12 48 -9 24 -18 58
-20 74 -3 28 -3 29 11 11 8 -10 12 -22 10 -26 -3 -4 2 -13 10 -20 8 -7 15 -19
15 -26 0 -8 3 -14 8 -14 4 0 18 -18 31 -40 24 -38 45 -46 35 -12 -5 14 -4 14
4 3 6 -8 8 -20 5 -28 -3 -7 -1 -13 4 -13 11 0 43 -64 43 -84 0 -11 -5 -12 -25
-3 -14 7 -25 16 -25 20 0 5 -4 5 -10 2 -5 -3 -10 2 -10 12 0 11 -3 14 -8 7 -4
-6 -17 -10 -29 -9 -13 1 -23 -2 -23 -7 0 -5 -5 -6 -11 -2 -6 3 -15 0 -20 -7
-7 -12 -9 -11 -9 1 0 8 -8 2 -17 -15 -18 -33 -25 -104 -12 -120 4 -6 10 -22
12 -35 2 -14 9 -38 15 -53 7 -16 12 -34 12 -42 0 -8 4 -16 9 -19 5 -3 12 -18
16 -33 3 -15 10 -30 13 -33 4 -3 20 -30 36 -60 17 -30 36 -61 43 -68 7 -7 13
-21 13 -31 0 -9 6 -23 13 -30 6 -6 12 -15 13 -19 3 -26 18 -62 25 -62 5 0 9
-7 9 -15 0 -13 29 -79 51 -115 36 -60 47 -87 38 -101 -5 -8 -9 -10 -9 -6 0 5
-7 1 -16 -7 -8 -9 -20 -14 -25 -10 -5 3 -9 2 -8 -3 3 -20 -2 -34 -11 -28 -6 3
-13 -1 -16 -9 -3 -9 -10 -13 -15 -10 -8 5 -13 -9 -10 -28 0 -4 -6 -5 -14 -2
-9 4 -15 0 -15 -10 0 -9 -6 -13 -14 -10 -9 3 -21 -5 -31 -20 -10 -14 -21 -23
-26 -20 -5 3 -8 0 -7 -7 2 -7 -1 -13 -7 -14 -9 0 -46 -29 -81 -63 -8 -7 -14
-10 -14 -5 0 4 -5 0 -11 -9 -5 -10 -15 -18 -22 -18 -7 0 -18 -9 -25 -21 -8
-12 -19 -18 -27 -15 -8 3 -14 2 -14 -2 4 -22 -3 -31 -18 -25 -10 4 -14 2 -10
-4 4 -6 0 -13 -8 -17 -8 -3 -15 -12 -15 -20 0 -9 -6 -13 -14 -10 -8 3 -17 0
-22 -7 -5 -8 -3 -10 7 -5 8 4 5 0 -5 -8 -11 -9 -16 -16 -11 -16 4 0 -3 -9 -16
-21 -13 -11 -23 -27 -21 -35 2 -9 -3 -12 -14 -7 -12 4 -15 3 -10 -5 4 -7 1
-15 -8 -18 -9 -3 -13 -10 -10 -15 3 -5 -1 -12 -10 -15 -8 -3 -12 -12 -9 -20 3
-8 0 -14 -6 -14 -6 0 -11 -5 -11 -11 0 -5 6 -7 13 -4 6 4 4 0 -7 -9 -10 -8
-16 -21 -13 -28 2 -7 -1 -24 -7 -38 -6 -14 -11 -34 -11 -45 1 -11 -3 -26 -8
-32 -6 -9 -5 -13 2 -13 7 0 9 -5 4 -12 -10 -18 -13 -33 -16 -108 -1 -36 -7
-71 -11 -79 -5 -7 -5 -16 0 -20 12 -8 17 -34 5 -26 -6 3 -8 -10 -5 -36 3 -23
1 -38 -4 -35 -5 3 -7 -6 -4 -19 2 -14 8 -28 13 -31 5 -3 3 -14 -4 -26 -10 -16
-9 -22 1 -25 10 -4 10 -8 1 -20 -8 -9 -9 -17 -3 -21 5 -4 10 -23 12 -42 3 -48
6 -63 15 -77 5 -8 3 -13 -3 -13 -7 0 -6 -6 3 -15 9 -8 14 -26 13 -39 -2 -14 3
-27 10 -30 8 -3 11 -12 8 -20 -3 -8 -1 -17 5 -21 6 -3 11 -15 11 -25 0 -10 4
-20 9 -22 5 -1 11 -12 13 -23 1 -11 9 -26 16 -34 11 -11 11 -15 1 -22 -11 -6
-10 -9 2 -14 8 -3 16 -17 17 -32 1 -15 8 -30 15 -35 9 -6 8 -8 -3 -8 -12 0
-13 -2 -1 -9 7 -5 10 -14 7 -20 -4 -6 -3 -11 3 -11 6 0 7 -7 4 -17 -5 -12 -3
-14 8 -8 11 6 11 5 2 -5 -9 -10 -8 -16 3 -27 8 -8 12 -19 9 -24 -4 -5 -1 -9 5
-9 6 0 8 -4 5 -10 -3 -5 -1 -10 5 -10 6 0 8 -4 5 -10 -3 -5 0 -10 8 -10 7 0
22 -8 33 -18 30 -27 111 -72 118 -65 3 3 6 1 6 -6 0 -7 6 -11 14 -8 8 3 16 1
18 -5 4 -11 22 -17 65 -21 13 -1 23 -5 23 -9 0 -5 6 -8 14 -8 7 0 19 -6 26
-14 6 -8 18 -12 27 -9 26 10 34 -19 11 -39 -11 -10 -24 -15 -29 -12 -5 3 -6
-3 -2 -12 4 -11 2 -15 -4 -11 -5 3 -16 -5 -23 -18 -7 -13 -17 -22 -22 -19 -4
3 -8 1 -8 -5 0 -5 -18 -21 -40 -34 -22 -13 -37 -27 -33 -30 3 -4 -1 -7 -11 -7
-9 0 -14 -4 -11 -10 3 -6 -1 -7 -9 -4 -10 4 -18 -1 -22 -10 -5 -13 -9 -14 -21
-5 -11 10 -13 9 -11 -2 2 -8 -3 -13 -12 -11 -8 2 -12 0 -7 -4 11 -11 -33 -53
-49 -47 -8 3 -17 -2 -20 -11 -3 -9 -10 -13 -15 -10 -5 3 -12 -2 -15 -10 -3 -9
-11 -16 -18 -16 -6 0 -18 -9 -26 -19 -7 -11 -18 -17 -23 -14 -6 3 -16 -2 -23
-12 -8 -10 -17 -16 -20 -12 -4 4 -17 -4 -29 -17 -11 -12 -29 -22 -38 -20 -9 1
-15 -2 -11 -7 3 -5 -2 -9 -10 -9 -9 0 -16 -5 -16 -11 0 -5 -4 -8 -9 -4 -5 3
-12 1 -16 -5 -7 -12 -85 -53 -85 -45 0 3 -10 -3 -22 -14 -11 -11 -25 -18 -30
-15 -4 3 -8 1 -8 -3 0 -5 -16 -15 -35 -22 -19 -7 -33 -17 -30 -22 3 -5 -1 -6
-9 -3 -9 3 -16 1 -16 -5 0 -6 -3 -10 -7 -10 -21 3 -34 -2 -28 -11 4 -6 3 -10
-2 -8 -17 4 -73 -14 -67 -23 3 -5 -4 -9 -15 -9 -11 0 -26 -7 -34 -15 -8 -8
-17 -11 -21 -8 -3 4 -6 1 -6 -6 0 -7 -4 -9 -10 -6 -5 3 -10 1 -10 -4 0 -6 -3
-11 -7 -10 -16 2 -53 -14 -53 -23 0 -5 -5 -6 -10 -3 -6 3 -13 -1 -16 -9 -3 -9
-10 -13 -15 -10 -5 3 -9 0 -9 -6 0 -6 -4 -8 -10 -5 -5 3 -10 1 -10 -5 0 -6 -5
-8 -10 -5 -6 3 -13 -1 -16 -9 -3 -9 -10 -13 -15 -10 -5 3 -9 1 -9 -4 0 -8 -33
-27 -52 -31 -5 0 -18 -10 -30 -21 -48 -42 -58 -50 -58 -44 0 4 -11 -5 -25 -20
-14 -15 -25 -24 -25 -20 0 4 -9 -3 -20 -16 -11 -13 -20 -20 -20 -16 0 5 -14
-8 -32 -28 -17 -20 -36 -36 -41 -36 -14 0 -96 -88 -88 -96 3 -4 -2 -4 -11 -1
-10 4 -18 2 -18 -4 0 -6 -7 -17 -15 -25 -8 -9 -15 -13 -15 -9 0 3 -6 0 -14 -7
-8 -7 -11 -17 -8 -23 3 -5 -2 -4 -12 4 -15 12 -17 12 -14 0 2 -8 -3 -13 -9
-11 -7 1 -13 -3 -13 -9 0 -5 -5 -7 -10 -4 -6 4 -9 1 -8 -6 2 -7 -17 -23 -42
-36 -45 -22 -130 -93 -114 -93 5 0 0 -7 -10 -15 -11 -8 -16 -15 -12 -15 5 0 3
-7 -4 -15 -6 -8 -8 -20 -4 -26 5 -8 3 -9 -6 -4 -10 6 -12 3 -8 -13 4 -12 2
-20 -3 -16 -8 4 -14 -17 -10 -38 0 -5 -3 -8 -8 -8 -8 0 -19 -39 -24 -82 -1
-10 -5 -18 -10 -18 -4 0 -6 -4 -2 -9 3 -5 1 -12 -5 -16 -6 -4 -8 -11 -5 -16 4
-5 1 -9 -6 -9 -7 0 -10 -3 -6 -6 3 -3 -4 -27 -15 -52 -11 -26 -21 -54 -23 -62
-5 -30 -18 -60 -25 -60 -5 0 -7 -12 -5 -26 1 -15 -3 -28 -11 -31 -10 -4 -11
-10 -3 -25 7 -13 7 -18 1 -14 -13 8 -34 -47 -33 -87 0 -9 -4 -15 -9 -12 -6 3
-7 -1 -4 -9 4 -10 1 -16 -7 -16 -7 0 -9 -3 -6 -7 4 -3 1 -13 -6 -21 -10 -13
-9 -14 3 -7 12 7 13 6 3 -7 -7 -8 -10 -18 -6 -21 3 -4 1 -7 -6 -7 -7 0 -9 -4
-6 -10 3 -5 3 -16 -2 -22 -4 -7 -8 -17 -9 -23 -5 -27 -10 -40 -16 -46 -5 -3
-9 -17 -10 -32 -1 -15 -6 -27 -10 -27 -4 0 -5 -9 -3 -20 2 -11 -1 -20 -6 -20
-6 0 -8 -4 -4 -9 3 -5 1 -12 -5 -16 -6 -4 -8 -11 -5 -16 4 -5 3 -9 -2 -9 -4 0
-9 -17 -11 -38 -1 -20 -7 -39 -12 -40 -6 -2 -8 -8 -4 -13 3 -5 0 -9 -7 -9 -8
0 -8 -4 1 -15 9 -11 9 -15 1 -15 -7 0 -9 -4 -6 -10 3 -5 2 -10 -4 -10 -6 0 -7
-7 -4 -17 4 -10 2 -14 -4 -10 -7 5 -9 0 -6 -13 3 -11 1 -20 -5 -20 -5 0 -9
-14 -8 -31 1 -18 -3 -33 -11 -36 -7 -3 -13 -9 -13 -15 0 -5 6 -6 13 -2 9 6 9
4 -1 -8 -14 -17 -24 -52 -24 -80 1 -10 -3 -18 -6 -18 -8 0 -13 -24 -15 -77 -1
-17 -6 -29 -11 -25 -5 3 -7 -5 -4 -16 4 -12 2 -22 -4 -22 -5 0 -6 -5 -3 -10 3
-6 0 -10 -7 -10 -9 0 -9 -3 2 -10 8 -5 10 -10 3 -10 -6 0 -10 -13 -9 -30 1
-17 -2 -30 -7 -30 -5 0 -7 -7 -4 -15 4 -8 3 -17 -2 -19 -4 -3 -7 -21 -6 -40 0
-20 -3 -32 -9 -29 -5 4 -7 -1 -3 -10 4 -10 1 -17 -6 -17 -8 0 -8 -3 2 -9 9 -6
10 -11 2 -15 -6 -4 -11 -12 -11 -17 0 -6 6 -7 13 -3 8 6 8 3 -1 -9 -8 -9 -11
-21 -7 -27 3 -5 2 -10 -2 -10 -5 0 -8 -17 -7 -37 1 -21 -2 -45 -7 -55 -6 -11
-5 -19 2 -24 8 -4 7 -9 -2 -15 -8 -5 -9 -9 -4 -9 6 0 11 -9 12 -20 1 -11 -2
-18 -6 -16 -4 3 -8 -1 -8 -9 0 -8 3 -15 7 -15 3 0 6 -9 7 -20 1 -11 -1 -18 -6
-16 -4 3 -7 -8 -6 -24 0 -15 3 -27 6 -25 3 2 6 -9 6 -25 0 -16 -4 -27 -9 -24
-13 9 -9 -4 8 -20 8 -9 11 -16 5 -16 -10 0 -7 -32 5 -52 4 -7 3 -8 -4 -4 -19
11 -14 -5 6 -21 9 -8 12 -12 5 -9 -8 4 -11 -4 -11 -23 1 -19 5 -28 12 -24 6 4
5 -1 -3 -10 -10 -13 -10 -17 -1 -17 10 0 10 -3 0 -15 -10 -12 -10 -15 1 -15
11 0 11 -2 -1 -10 -11 -7 -11 -10 -2 -10 7 0 11 -4 7 -9 -3 -5 -1 -12 4 -16 7
-3 7 -15 1 -29 -5 -13 -7 -26 -5 -27 10 -11 12 -69 2 -73 -9 -3 -8 -5 1 -5 6
-1 12 -6 12 -12 0 -6 -7 -8 -16 -5 -8 3 -12 2 -9 -4 3 -6 14 -10 23 -10 15 -1
15 -2 -2 -11 -15 -9 -16 -13 -5 -20 12 -7 11 -9 -1 -9 -13 0 -13 -1 0 -10 11
-7 11 -10 2 -10 -7 0 -10 -5 -7 -11 11 -17 11 -109 0 -109 -5 0 -3 -5 5 -10
11 -7 11 -10 2 -10 -7 0 -10 -5 -7 -10 4 -6 12 -7 18 -3 7 4 6 0 -2 -10 -7 -9
-11 -24 -7 -32 3 -8 0 -15 -6 -15 -7 0 -6 -5 2 -15 10 -12 10 -15 -1 -15 -11
0 -11 -2 1 -10 13 -8 12 -10 -3 -10 -16 0 -17 -2 -3 -15 10 -11 12 -23 7 -43
-5 -15 -4 -38 0 -51 7 -18 6 -22 -5 -18 -10 4 -13 1 -9 -8 3 -8 8 -13 12 -11
3 2 6 -7 6 -20 0 -13 -4 -24 -9 -24 -5 0 -4 -6 2 -13 7 -8 7 -18 2 -27 -5 -9
-5 -19 1 -26 6 -8 7 -14 0 -18 -6 -4 -6 -18 -1 -35 7 -25 6 -29 -8 -23 -14 5
-15 3 -5 -9 10 -12 10 -18 0 -29 -9 -10 -9 -11 0 -6 9 5 12 -1 11 -18 -1 -15
-7 -26 -13 -26 -5 0 -4 -4 3 -9 14 -9 13 -32 -3 -43 -6 -5 -5 -8 4 -8 11 0 11
-3 0 -17 -12 -15 -12 -16 5 -9 19 6 19 6 4 -11 -19 -21 -20 -33 -6 -50 8 -9 7
-13 -3 -13 -11 0 -11 -2 1 -10 12 -8 12 -10 1 -10 -11 0 -11 -3 -1 -15 10 -12
10 -15 -1 -15 -11 0 -11 -2 1 -10 12 -8 12 -10 1 -10 -10 0 -11 -3 -2 -13 8
-10 7 -17 -1 -25 -9 -9 -9 -12 1 -12 10 0 11 -3 2 -14 -9 -10 -9 -16 -1 -21 8
-5 8 -10 0 -20 -8 -10 -8 -15 0 -20 6 -4 7 -12 2 -18 -4 -7 -8 -40 -8 -74 1
-35 -2 -63 -5 -63 -7 0 -5 -38 4 -46 3 -4 -1 -13 -9 -21 -12 -12 -12 -18 -2
-30 7 -9 8 -17 2 -21 -9 -6 -14 -38 -15 -84 0 -10 -3 -18 -7 -18 -4 0 -7 -12
-8 -27 0 -16 -3 -42 -6 -60 -4 -20 -2 -34 5 -37 7 -2 4 -5 -6 -5 -15 -1 -16
-4 -6 -22 8 -17 8 -20 -1 -14 -9 6 -11 0 -8 -24 2 -17 0 -31 -5 -31 -5 0 -7
-6 -4 -14 3 -8 1 -17 -6 -20 -9 -3 -8 -5 1 -5 8 -1 10 -6 5 -14 -8 -13 -11
-27 -15 -70 -1 -16 -6 -31 -11 -34 -4 -2 -2 -12 5 -21 10 -12 10 -14 1 -8 -12
6 -19 -18 -14 -46 0 -5 -4 -8 -10 -8 -8 0 -8 -5 1 -15 7 -8 8 -15 3 -15 -11 0
-17 -68 -15 -180 2 -108 4 -130 13 -130 4 0 7 -14 7 -32 -1 -18 4 -34 10 -36
6 -2 9 -9 6 -17 -3 -7 0 -16 5 -20 6 -3 9 -11 6 -16 -4 -5 -1 -9 4 -9 6 0 11
-7 11 -15 0 -8 5 -15 10 -15 6 0 9 -6 8 -12 -2 -7 3 -12 10 -10 8 1 11 -2 8
-7 -4 -5 1 -16 9 -24 8 -9 15 -20 15 -26 0 -6 5 -11 11 -11 6 0 9 -7 5 -15 -3
-8 -1 -15 4 -15 6 0 9 -3 9 -7 -1 -5 -1 -10 0 -13 4 -9 12 -73 16 -120 2 -25
4 -45 5 -45 1 0 3 -8 5 -18 2 -9 0 -15 -3 -13 -9 5 -8 -47 1 -61 4 -6 3 -13 0
-17 -11 -10 -10 -66 0 -59 6 4 8 -5 5 -21 -3 -14 -2 -26 3 -26 4 0 6 -9 4 -20
-2 -11 0 -20 6 -20 5 0 9 -7 9 -15 0 -17 20 -56 33 -66 5 -3 9 -10 10 -15 1
-5 6 -8 11 -6 5 2 3 -5 -5 -14 -9 -12 -10 -15 -1 -10 8 5 16 -3 24 -21 6 -15
10 -32 9 -36 -1 -5 2 -6 6 -4 5 3 14 -1 21 -9 7 -8 10 -14 6 -14 -4 0 3 -9 16
-20 13 -11 20 -20 16 -20 -4 0 11 -17 33 -39 22 -21 37 -41 34 -45 -4 -3 0 -6
8 -6 9 0 25 -9 37 -20 12 -11 24 -20 27 -20 10 0 35 -28 35 -39 0 -6 4 -11 8
-11 8 0 10 -6 14 -47 0 -10 6 -21 12 -25 7 -4 4 -13 -7 -26 -9 -10 -14 -22
-10 -27 5 -4 2 -5 -4 -1 -8 4 -13 1 -13 -7 0 -8 -7 -20 -15 -27 -8 -7 -12 -16
-9 -21 3 -5 1 -9 -4 -9 -5 0 -9 -14 -8 -30 0 -17 4 -30 7 -30 4 0 7 -6 6 -12
0 -7 1 -21 1 -31 2 -16 205 -17 4167 -15 2291 2 4165 7 4164 11 0 5 7 14 15
20 9 7 17 22 19 34 2 12 12 30 23 40 11 10 25 30 32 46 6 15 16 27 22 27 6 0
8 5 5 10 -3 6 1 13 9 16 9 3 16 10 16 16 0 5 -6 6 -12 2 -16 -10 9 23 39 52
13 11 20 24 17 27 -3 3 4 10 15 17 12 6 21 17 21 25 0 8 5 15 10 15 6 0 10 7
10 15 0 8 5 15 11 15 5 0 7 5 4 10 -3 6 1 10 9 10 9 0 13 6 10 14 -3 7 2 16
10 19 9 4 16 13 16 22 0 8 7 15 15 15 9 0 12 6 9 15 -4 8 -1 15 6 15 6 0 8 5
5 10 -3 5 -1 10 5 10 6 0 8 5 5 10 -3 6 -1 10 4 10 6 0 10 3 10 8 -3 16 14 72
22 72 5 0 8 3 7 8 -3 14 16 48 41 71 14 14 25 29 23 33 -1 5 6 12 15 15 26 10
53 36 47 45 -3 5 -1 7 5 6 12 -4 92 82 86 93 -3 4 2 10 11 13 9 3 14 13 11 20
-3 8 -2 16 4 18 11 4 21 47 23 95 1 18 5 33 9 33 5 0 5 5 1 11 -4 6 -8 39 -10
73 -8 123 -10 142 -18 154 -4 7 -2 12 3 12 6 0 10 3 9 8 -3 8 29 59 49 80 7 7
13 20 13 28 0 8 3 14 8 14 4 0 12 11 19 25 8 19 8 23 0 18 -7 -4 -6 1 2 10 7
9 10 17 5 17 -5 0 -4 4 2 8 12 7 24 70 30 147 1 22 3 40 4 40 3 0 10 41 12 68
0 15 5 27 9 27 4 0 6 9 4 20 -2 11 0 22 5 25 5 3 7 14 5 25 -2 11 1 20 6 20 6
0 7 5 4 10 -3 6 -2 10 4 10 6 0 8 7 5 15 -4 8 -2 21 4 28 5 6 8 20 7 30 -2 9
0 17 5 17 5 0 7 11 5 25 -1 14 2 25 7 25 6 0 8 18 6 39 -2 23 1 37 6 34 5 -4
6 7 3 26 -4 18 -3 30 1 27 5 -3 9 1 9 9 0 8 -3 15 -7 15 -3 0 -6 9 -6 20 0 11
4 20 8 20 4 0 6 9 5 20 -1 11 -5 20 -10 20 -5 0 -4 6 2 14 9 10 9 16 1 21 -8
5 -8 11 1 21 6 8 8 14 3 14 -5 0 -10 21 -11 46 -2 26 -7 52 -13 58 -6 9 -6 16
2 24 9 9 9 12 -1 12 -7 0 -9 5 -6 10 4 6 1 17 -5 25 -10 12 -10 15 1 15 10 1
9 5 -4 14 -11 8 -14 17 -8 20 6 4 5 16 -4 33 -8 15 -12 30 -9 35 3 4 0 8 -5 8
-6 0 -10 3 -10 8 3 19 -2 43 -8 39 -5 -3 -9 11 -10 31 -1 20 -7 38 -13 40 -5
2 -8 8 -5 12 3 5 -1 26 -9 47 -9 21 -17 52 -20 68 -2 17 -5 30 -6 30 -4 0 -10
47 -12 83 -1 17 -5 32 -10 32 -11 0 -6 23 7 32 7 5 6 8 0 8 -6 0 -11 9 -12 20
-1 13 3 18 10 14 7 -3 5 0 -3 8 -9 8 -15 29 -14 53 0 22 -4 46 -9 52 -6 9 -5
13 3 13 9 0 10 3 1 13 -8 10 -7 17 1 25 9 9 9 12 1 12 -7 0 -10 10 -7 26 3 19
1 24 -8 18 -10 -5 -10 -4 -2 5 8 9 9 25 2 53 -5 22 -6 43 -3 46 2 3 0 11 -6
19 -9 10 -8 13 2 13 10 0 11 2 2 8 -6 4 -13 32 -16 62 -3 30 -6 55 -7 55 -3 0
-9 41 -12 82 -2 24 -7 43 -11 43 -5 0 -5 5 -2 10 3 6 0 10 -7 10 -9 0 -9 3 2
10 10 7 11 13 5 18 -6 4 -10 17 -9 29 1 13 -3 23 -8 23 -5 0 -7 4 -4 9 4 5 2
21 -3 34 -7 18 -7 27 2 31 9 3 8 5 -1 5 -7 1 -10 5 -7 11 3 5 1 10 -6 10 -8 0
-8 4 1 15 7 8 8 15 3 15 -5 0 -10 17 -11 37 -1 21 -6 39 -12 41 -7 3 -7 8 1
18 9 11 9 14 -1 14 -7 0 -10 6 -7 14 3 7 0 19 -6 25 -8 8 -7 11 3 11 11 0 12
2 3 8 -7 4 -14 23 -16 43 -2 19 -7 41 -12 48 -6 10 -4 12 4 6 10 -6 11 -3 2
12 -6 11 -7 23 -4 27 3 3 2 6 -4 6 -5 0 -10 7 -10 15 0 8 5 15 11 15 6 0 5 4
-2 9 -7 4 -14 24 -15 44 -1 21 -4 37 -8 37 -3 0 -6 15 -7 33 -2 42 -6 59 -16
76 -7 11 -6 12 5 6 11 -7 12 -6 3 6 -11 14 -14 32 -14 77 0 12 -6 22 -13 22
-8 0 -7 4 3 10 8 5 10 10 5 10 -10 0 -12 11 -16 68 0 9 -3 24 -6 32 -3 8 -7
34 -9 58 -2 24 -8 52 -14 62 -7 13 -7 21 0 25 7 4 6 14 -2 28 -6 12 -12 33
-13 47 -1 14 -4 31 -8 37 -4 7 -2 15 3 18 8 5 6 13 -6 26 -12 13 -13 19 -4 19
9 0 10 3 1 13 -6 8 -8 17 -4 20 3 4 1 7 -7 7 -10 0 -10 3 0 15 7 8 8 15 3 15
-6 0 -9 11 -8 25 2 14 -2 25 -8 25 -7 0 -5 5 3 10 9 6 11 10 3 10 -7 0 -10 7
-7 15 4 9 0 15 -7 15 -11 0 -11 3 1 10 8 5 10 10 4 10 -6 0 -10 11 -9 25 2 14
-2 25 -8 25 -7 0 -5 5 3 10 8 5 10 10 4 10 -6 0 -10 10 -10 23 1 12 -2 28 -7
35 -6 8 -5 12 4 12 12 0 12 2 1 9 -8 4 -13 11 -13 15 1 3 1 7 0 9 -1 1 -2 16
-4 32 -1 17 -3 30 -4 30 -3 0 -12 65 -14 100 -1 17 -5 32 -9 35 -4 3 -9 25
-10 48 -2 23 -5 42 -8 42 -5 0 -10 28 -13 68 0 6 -3 12 -6 12 -3 0 -7 17 -9
37 -1 20 -6 39 -10 43 -4 3 -9 19 -11 35 -1 17 -7 35 -12 41 -5 6 -6 14 -2 17
3 4 1 13 -6 21 -6 7 -13 28 -14 45 -1 17 -6 31 -11 31 -4 0 -6 7 -2 15 3 8 1
15 -5 15 -6 0 -8 4 -5 8 3 5 -2 21 -9 36 -8 16 -12 32 -9 37 3 5 0 9 -6 9 -6
0 -10 6 -8 13 1 6 -3 21 -9 32 -6 11 -9 28 -8 38 2 9 0 15 -5 12 -7 -4 -33 74
-33 101 0 7 -4 11 -9 8 -4 -3 -8 0 -8 5 0 22 -1 27 -17 50 -11 17 -11 21 -2
16 8 -5 6 1 -3 12 -10 11 -18 27 -18 36 0 9 -4 18 -10 22 -5 3 -6 13 -3 22 4
11 3 14 -5 9 -8 -4 -10 -2 -6 7 3 8 -3 17 -13 21 -15 6 -15 8 -3 16 9 6 10 10
3 10 -6 0 -17 16 -23 35 -6 19 -16 35 -21 35 -6 0 -7 4 -4 10 3 6 1 10 -4 10
-6 0 -11 5 -11 12 0 6 -7 18 -15 27 -8 9 -29 31 -45 50 -17 18 -30 30 -30 26
0 -3 -7 0 -15 7 -33 30 -45 38 -55 38 -6 0 -8 4 -5 10 3 6 -1 10 -9 10 -9 0
-16 3 -16 8 0 4 -10 19 -22 32 -13 14 -24 32 -26 40 -2 8 -14 25 -28 38 -13
13 -21 28 -18 34 4 7 2 8 -4 4 -7 -4 -12 -1 -12 8 0 9 -4 16 -10 16 -5 0 -10
9 -10 20 0 12 -7 20 -16 20 -10 0 -14 6 -11 14 4 9 -2 17 -14 21 -11 4 -18 9
-15 12 5 6 -2 15 -51 68 -18 19 -29 35 -25 35 4 0 -1 5 -10 11 -10 5 -18 17
-18 24 0 14 -12 19 -32 16 -8 -1 -12 15 -9 32 1 5 -3 6 -8 3 -5 -3 -26 10 -47
29 -22 19 -45 35 -51 35 -7 0 -13 5 -13 11 0 5 -4 8 -9 5 -5 -3 -11 1 -15 9
-3 8 -15 15 -26 15 -11 0 -20 4 -20 8 0 9 -64 37 -76 33 -4 -2 -10 2 -14 9 -4
6 -17 12 -28 13 -12 1 -22 5 -22 10 0 4 -4 6 -8 3 -5 -3 -20 1 -33 8 -14 7
-39 17 -55 21 -36 10 -35 10 -56 19 -9 4 -22 4 -29 0 -8 -4 -9 -3 -5 4 5 8 -2
12 -18 12 -14 0 -26 4 -26 8 0 4 -10 8 -22 9 -30 0 -52 6 -58 15 -3 4 -21 8
-39 10 -18 1 -35 6 -37 10 -3 4 -16 8 -30 8 -13 0 -24 6 -24 13 0 8 -4 7 -10
-3 -7 -12 -10 -12 -10 -1 0 7 -6 11 -15 7 -8 -3 -15 -2 -15 3 0 4 -6 8 -12 9
-7 0 -26 4 -43 7 -16 3 -36 6 -42 7 -7 1 -13 5 -13 9 0 5 -7 5 -17 2 -9 -4
-14 -2 -11 3 4 5 -9 9 -28 8 -19 -1 -34 1 -34 5 0 4 -11 8 -25 9 -47 3 -55 5
-55 15 0 5 -11 7 -25 5 -17 -4 -29 0 -35 11 -5 9 -10 12 -10 7 0 -4 -12 -1
-26 9 -15 9 -23 12 -19 5 5 -9 2 -9 -11 -1 -27 15 -78 35 -86 33 -5 -1 -8 3
-8 9 0 5 -4 8 -9 4 -5 -3 -12 -1 -16 5 -4 6 -11 8 -16 5 -5 -4 -9 -1 -9 5 0 7
-7 10 -15 6 -8 -3 -15 -1 -15 5 0 6 -4 7 -10 4 -5 -3 -10 -1 -10 4 0 6 -9 11
-20 11 -11 0 -20 5 -20 12 0 6 -3 9 -6 5 -4 -3 -19 0 -34 8 -15 8 -30 11 -34
8 -3 -4 -6 -1 -6 6 0 7 -4 9 -10 6 -5 -3 -10 -1 -10 5 0 7 -7 10 -15 6 -8 -3
-21 1 -29 9 -8 8 -21 15 -28 15 -8 0 -20 6 -27 13 -11 10 -13 9 -7 -3 6 -12 5
-11 -6 1 -7 9 -21 15 -31 13 -9 -1 -15 1 -12 6 5 7 -35 23 -62 25 -6 0 -21 11
-32 24 -12 13 -21 19 -21 12 0 -9 -5 -8 -15 2 -8 9 -20 17 -26 19 -9 3 -9 9
-1 24 8 14 12 15 12 4 1 -12 4 -11 15 4 7 10 19 15 24 11 6 -3 14 0 17 9 3 8
14 13 25 11 10 -2 19 0 19 4 0 9 66 36 74 30 3 -2 11 5 19 15 9 12 19 16 27
11 9 -5 11 -4 6 4 -4 6 0 14 11 18 10 4 23 12 30 17 35 31 43 36 43 30 0 -4 9
3 20 16 11 13 20 19 20 14 0 -5 5 -1 11 9 6 9 14 15 20 12 5 -4 9 1 9 10 0 9
4 14 9 11 5 -3 12 1 15 10 3 8 10 12 16 9 5 -3 10 1 10 9 0 8 10 22 22 30 12
9 18 16 13 16 -5 0 0 7 11 15 10 8 15 15 10 15 -4 0 -1 11 7 24 12 18 13 26 4
36 -9 10 -9 11 1 6 10 -6 12 4 10 43 -2 28 -6 51 -10 51 -4 0 -5 9 -3 20 2 11
0 20 -5 20 -5 0 -7 7 -4 15 4 8 1 15 -6 15 -7 0 -10 7 -6 15 3 8 1 15 -5 15
-6 0 -9 6 -6 14 3 8 -1 17 -10 20 -9 4 -13 9 -10 13 4 3 -3 14 -15 24 -11 11
-17 19 -12 19 5 0 -13 20 -39 45 -27 25 -53 43 -58 39 -5 -3 -9 2 -9 10 0 9
-9 16 -20 16 -11 0 -20 5 -20 11 0 5 -4 7 -10 4 -5 -3 -10 -1 -10 4 0 6 -3 10
-7 9 -12 -2 -46 13 -67 31 -11 9 -16 10 -12 4 4 -7 2 -13 -3 -13 -6 0 -11 5
-11 11 0 5 -4 8 -9 4 -5 -3 -12 -1 -16 4 -3 6 -13 7 -22 4 -11 -4 -14 -3 -9 5
4 7 3 12 -3 12 -6 0 -17 14 -26 30 -12 23 -12 30 -3 30 8 0 9 3 3 8 -6 4 -10
26 -10 49 0 24 -4 43 -8 43 -5 0 -5 5 -2 10 4 6 1 17 -5 25 -10 12 -10 15 1
15 11 0 11 2 -1 10 -8 5 -11 10 -6 10 5 0 3 7 -4 15 -7 8 -10 22 -6 30 3 9 2
13 -4 10 -6 -3 -10 1 -10 9 0 9 -5 16 -11 16 -5 0 -8 4 -4 9 3 5 -1 16 -9 24
-8 8 -12 18 -8 22 4 5 1 5 -6 1 -7 -4 -15 -1 -18 8 -3 9 -11 16 -16 16 -5 0
-19 10 -30 23 -11 12 -17 15 -13 7 4 -8 -2 -6 -12 5 -10 11 -30 26 -45 34 -16
8 -28 21 -28 28 0 8 -4 11 -10 8 -5 -3 -10 -1 -10 4 0 6 -7 11 -16 11 -8 0
-12 5 -9 10 3 6 2 10 -2 10 -13 0 -43 56 -35 65 4 5 1 5 -6 1 -7 -4 -15 0 -19
11 -4 10 -15 27 -25 37 -10 11 -18 24 -18 29 0 5 -9 18 -21 28 -11 10 -18 22
-15 27 3 6 0 12 -7 15 -6 2 -25 31 -42 63 -16 33 -34 62 -40 66 -6 5 -5 8 3 8
7 0 10 5 7 10 -4 6 -11 7 -17 4 -6 -4 -8 -3 -5 2 3 6 -5 28 -19 49 -13 22 -27
48 -30 58 -4 9 -10 17 -15 17 -5 0 -9 6 -9 14 0 8 -7 17 -16 20 -8 3 -13 10
-10 14 3 4 -6 16 -19 26 -14 10 -22 23 -18 29 3 5 2 7 -4 4 -5 -3 -15 3 -23
13 -8 10 -17 17 -22 14 -4 -3 -8 2 -8 10 0 9 -6 15 -12 13 -7 -1 -12 4 -11 10
2 7 0 12 -5 12 -20 -3 -32 3 -32 17 0 8 -4 12 -10 9 -15 -9 -12 11 7 53 9 20
18 42 19 47 1 6 3 12 4 15 1 3 3 16 5 30 2 14 6 35 9 47 2 12 7 48 11 79 3 32
8 61 11 66 3 4 0 8 -6 8 -6 0 -8 5 -4 12 13 20 13 82 0 97 -8 11 -8 13 2 7 9
-5 12 14 13 86 1 51 1 97 -1 103 -1 5 -2 42 -3 82 -1 40 -4 73 -7 73 -3 0 -6
15 -8 33 -3 46 -6 57 -28 104 -20 46 -30 53 -88 60 -29 4 -37 2 -31 -7 5 -9 4
-11 -4 -6 -11 7 -65 -27 -56 -36 2 -2 -9 -19 -25 -38 l-29 -34 -6 27 c-4 14
-4 31 0 36 3 6 2 11 -2 11 -10 0 -10 41 1 58 4 7 2 12 -6 12 -9 0 -10 2 -1 8
7 4 11 34 9 84 -1 47 2 79 9 82 6 3 6 5 0 5 -6 1 -8 30 -4 78 6 86 15 116 33
110 7 -3 12 4 12 14 0 11 -6 19 -13 19 -7 0 -13 -6 -13 -14 0 -8 -4 -17 -8
-20 -5 -3 -9 28 -11 67 -5 136 -6 147 -15 147 -5 0 -4 6 1 13 6 6 9 20 8 29
-2 10 1 20 6 24 10 6 11 -1 11 -91 0 -33 3 -51 5 -40 3 11 10 26 17 34 6 8 6
12 1 9 -7 -4 -10 6 -10 25 1 18 -4 55 -11 82 l-13 50 19 -25 20 -25 -12 32
c-7 17 -14 30 -17 28 -4 -2 -6 18 -6 45 0 33 -4 46 -12 43 -7 -3 -12 4 -12 14
0 10 -3 34 -6 54 -4 22 -2 40 4 44 7 4 11 -6 11 -27 0 -18 5 -40 11 -48 8 -12
9 -11 5 5 -3 12 -7 41 -8 65 -1 25 -3 39 -6 32 -3 -10 -7 -10 -20 0 -12 10
-14 10 -8 1 5 -9 0 -12 -18 -11 -14 1 -28 8 -30 15 -3 8 1 10 11 6 22 -8 41
21 35 53 l-5 25 -12 -23 c-8 -16 -9 -27 -1 -38 5 -8 1 -7 -10 4 -14 14 -16 20
-6 23 10 4 8 9 -5 19 -10 8 -13 13 -8 12 6 -2 10 1 10 7 0 5 -9 10 -19 11 -11
0 -22 6 -24 13 -3 9 -8 9 -20 -1 -14 -11 -14 -11 -5 6 14 26 5 59 -16 51 -8
-3 -12 -3 -8 1 3 4 -8 20 -26 35 -17 16 -26 29 -19 29 7 0 10 5 7 10 -4 6 -10
8 -15 5 -13 -8 -20 23 -11 47 10 27 -1 72 -23 94 -9 9 -14 19 -11 24 3 5 -4
12 -15 15 -22 7 -44 50 -35 66 4 5 -1 6 -10 2 -10 -3 -6 5 9 21 15 14 31 26
36 26 5 0 7 7 4 15 -4 8 -2 15 4 15 6 0 9 6 8 14 -3 22 -27 46 -39 39 -6 -3
-7 -1 -3 6 9 14 -20 45 -34 36 -6 -3 -7 1 -4 9 4 9 1 16 -6 16 -7 0 -10 8 -7
20 3 11 2 18 -2 16 -4 -3 -15 6 -25 20 -18 22 -20 23 -32 6 -12 -15 -12 -15
-7 6 4 16 1 22 -11 22 -11 0 -14 4 -10 13 5 8 2 8 -9 -2 -11 -9 -17 -10 -17
-2 0 6 -10 11 -22 11 -18 0 -20 2 -9 9 19 12 22 51 4 51 -8 0 -11 -4 -8 -10 3
-5 2 -10 -2 -10 -12 0 -51 29 -40 30 12 0 -20 30 -32 30 -6 0 -11 5 -11 10 0
6 -7 10 -15 10 -8 0 -15 5 -15 11 0 5 -4 8 -9 4 -5 -3 -17 5 -25 17 -9 12 -16
19 -16 15 0 -4 -6 -2 -14 5 -10 9 -11 15 -2 20 6 5 1 8 -12 8 -13 0 -20 4 -17
10 3 6 1 10 -5 10 -8 0 -8 6 0 20 6 11 7 20 3 19 -20 -3 -34 2 -28 11 3 6 1
10 -6 10 -6 0 -9 8 -6 20 3 11 1 17 -4 14 -5 -3 -12 2 -15 11 -4 10 -14 15
-26 12 -16 -5 -17 -3 -6 10 11 14 11 15 -2 11 -8 -3 -20 3 -26 15 -10 17 -12
18 -17 3 -4 -10 -3 -14 3 -11 5 3 14 -12 20 -34 6 -22 18 -45 28 -51 15 -9 15
-9 -4 -7 -11 1 -41 19 -66 40 -25 20 -48 37 -52 37 -4 0 7 -12 25 -27 79 -66
119 -121 98 -133 -17 -11 -41 0 -35 16 3 8 0 11 -8 8 -7 -3 -19 2 -26 10 -7 9
-16 13 -21 10 -5 -3 -9 0 -9 6 0 13 -57 70 -63 64 -2 -3 -12 7 -21 21 -9 14
-21 23 -26 20 -6 -4 -10 1 -10 9 0 12 9 14 42 10 24 -3 40 -3 37 0 -3 3 -20 8
-39 10 -18 2 -37 10 -42 17 -8 11 -9 10 -5 -3 3 -9 3 -18 0 -21 -7 -8 -43 25
-43 40 0 7 -6 10 -14 7 -9 -3 -16 2 -18 13 -2 13 -6 14 -11 6 -5 -7 1 -21 13
-33 14 -14 16 -20 6 -20 -8 0 -16 6 -19 14 -3 8 -16 13 -31 12 -15 -2 -23 1
-19 7 4 7 0 8 -11 4 -13 -5 -17 -3 -13 7 4 10 -2 13 -24 12 -20 -2 -28 2 -25
10 3 7 -2 11 -12 9 -9 -1 -27 1 -39 6 -14 5 -23 4 -27 -4 -2 -7 -5 -5 -5 4 -1
11 -13 19 -36 23 -19 4 -39 14 -44 24 -9 16 -10 16 -17 -1 -4 -10 -2 -23 5
-30 8 -8 11 -8 11 1 0 10 5 10 23 0 12 -7 25 -12 29 -13 3 0 9 -2 12 -6 14
-14 -64 0 -92 16 -30 18 -31 20 -17 42 9 13 14 23 13 22 -2 0 -9 -3 -15 -6z
m-465 -88 c-3 -3 -9 2 -12 12 -6 14 -5 15 5 6 7 -7 10 -15 7 -18z m246 10 c-7
-16 -24 -21 -24 -6 0 8 7 13 27 20 1 1 0 -6 -3 -14z m892 -147 c3 -4 -1 -5
-10 -4 -8 1 -18 5 -22 8 -3 4 1 5 10 4 8 -1 18 -5 22 -8z m333 -431 c8 -10 7
-14 -2 -14 -8 0 -14 6 -14 14 0 7 1 13 2 13 2 0 8 -6 14 -13z m155 -276 c13
-14 14 -21 6 -26 -13 -8 -32 14 -24 26 2 4 -2 10 -8 12 -8 3 -8 6 -2 6 6 1 19
-8 28 -18z m16 -56 c0 -8 -2 -15 -4 -15 -2 0 -6 7 -10 15 -3 8 -1 15 4 15 6 0
10 -7 10 -15z m23 -25 c-5 -20 -23 -38 -23 -23 1 22 13 52 20 48 5 -3 6 -14 3
-25z m144 -236 c-3 -3 -12 -4 -19 -1 -8 3 -5 6 6 6 11 1 17 -2 13 -5z m-3117
-124 c0 -5 -2 -10 -4 -10 -3 0 -8 5 -11 10 -3 6 -1 10 4 10 6 0 11 -4 11 -10z
m61 -167 c-12 -20 -14 -14 -5 12 4 9 9 14 11 11 3 -2 0 -13 -6 -23z m-41 -789
c0 -3 -7 -1 -15 6 -8 7 -15 17 -15 22 0 5 7 3 15 -6 8 -8 15 -18 15 -22z
m5414 -8709 c-4 -8 -1 -15 6 -15 6 0 8 -4 5 -10 -3 -5 -1 -10 5 -10 6 0 8 -4
5 -10 -3 -5 -1 -10 6 -10 7 0 10 -3 6 -6 -3 -4 1 -13 9 -21 8 -8 12 -19 9 -24
-4 -5 -1 -9 4 -9 6 0 11 -8 11 -18 0 -10 6 -27 14 -37 8 -11 12 -25 9 -32 -3
-7 1 -13 8 -13 11 0 11 -3 -1 -10 -10 -6 -11 -10 -2 -10 6 0 12 -9 12 -19 0
-11 5 -23 10 -26 6 -3 10 -17 10 -31 0 -13 4 -24 9 -24 5 0 13 -9 16 -20 3
-11 11 -20 17 -20 6 0 19 -7 29 -16 9 -8 26 -17 36 -19 10 -1 17 -8 16 -14 -2
-6 2 -11 9 -11 9 0 9 -3 0 -12 -7 -7 -12 -20 -12 -29 0 -10 -7 -25 -16 -33 -8
-9 -12 -16 -8 -16 3 0 1 -7 -6 -15 -6 -8 -9 -19 -5 -25 4 -6 1 -9 -7 -8 -8 2
-12 -4 -10 -14 2 -10 -3 -18 -9 -18 -7 0 -9 -3 -6 -6 3 -4 2 -16 -4 -27 -9
-15 -8 -18 2 -12 8 5 10 4 5 -4 -13 -20 -16 -60 -6 -66 6 -4 8 -10 5 -15 -3
-5 0 -21 6 -37 6 -15 10 -29 9 -31 -1 -2 6 -14 14 -28 10 -14 12 -24 6 -24 -7
0 -8 -5 -3 -12 12 -20 11 -58 -1 -58 -7 0 -6 -4 2 -8 9 -6 6 -12 -12 -22 -14
-7 -24 -16 -21 -20 2 -3 -8 -6 -23 -6 -17 1 -26 -4 -24 -12 1 -8 -2 -11 -7 -7
-13 8 -81 -59 -81 -80 0 -9 -4 -13 -10 -10 -5 3 -10 -3 -10 -14 0 -11 -7 -26
-15 -35 -9 -8 -16 -18 -15 -21 1 -20 -1 -26 -8 -21 -5 3 -20 -1 -35 -9 -25
-13 -28 -12 -38 7 -9 16 -8 19 2 13 9 -6 10 -4 3 6 -12 19 -12 92 1 101 7 5 7
8 0 8 -6 0 -10 23 -8 58 1 31 2 57 3 57 1 0 3 34 6 75 2 41 6 93 7 115 1 22 6
46 10 53 5 7 3 12 -4 12 -9 0 -9 3 0 14 8 10 9 16 1 21 -6 3 -7 12 -3 18 10
15 10 18 12 73 1 30 5 43 12 38 7 -4 7 1 -1 16 -7 12 -8 25 -4 29 14 9 15 63
2 55 -7 -5 -8 -2 -2 7 4 8 9 38 11 68 1 30 4 60 7 68 3 7 0 13 -7 13 -8 0 -8
3 -2 8 6 4 10 24 9 45 0 20 4 37 10 37 7 0 7 3 1 8 -12 8 -16 42 -5 42 4 0 6
14 4 32 -2 18 1 35 8 40 10 6 10 8 1 8 -7 0 -10 7 -8 15 3 8 7 22 10 30 2 8 7
15 9 15 3 0 3 -7 0 -15z m-5677 -593 c1 -9 4 -27 5 -39 1 -13 5 -23 9 -23 6 0
8 -9 12 -57 1 -17 5 -29 9 -26 5 2 9 -5 9 -16 2 -29 3 -33 17 -58 9 -17 10
-23 1 -23 -8 0 -7 -5 2 -16 8 -9 14 -22 15 -28 2 -36 17 -95 23 -92 4 3 6 -11
6 -30 -1 -19 3 -34 8 -34 6 0 8 -3 5 -6 -4 -3 -2 -20 3 -37 12 -37 20 -75 22
-99 1 -10 4 -18 7 -18 7 0 8 -9 11 -55 1 -14 4 -25 8 -25 4 0 8 -10 9 -22 4
-40 8 -57 14 -64 4 -3 4 -12 1 -20 -3 -8 1 -14 8 -14 12 0 12 -2 0 -9 -9 -6
-10 -11 -2 -15 6 -4 9 -12 6 -17 -4 -5 -3 -15 2 -21 9 -15 13 -32 17 -74 1
-16 6 -36 10 -42 4 -7 4 -16 1 -22 -3 -5 0 -10 7 -11 10 0 10 -2 1 -6 -9 -3
-10 -10 -3 -22 22 -42 18 -88 -10 -121 l-27 -31 -31 29 c-17 16 -29 31 -27 34
3 3 -6 10 -19 18 -29 15 -39 45 -20 61 8 6 12 14 10 18 -3 4 -1 42 3 85 4 42
4 79 0 82 -4 2 -6 13 -4 24 2 11 0 20 -6 20 -5 0 -9 7 -9 15 0 8 -8 25 -17 37
-28 34 -113 120 -113 113 0 -3 -12 6 -27 20 -15 14 -31 25 -35 25 -5 0 -8 6
-8 14 0 8 -9 18 -20 21 -11 3 -20 13 -20 21 0 8 -4 14 -10 14 -5 0 -10 9 -10
19 0 11 -5 21 -11 23 -7 2 -12 15 -13 28 -1 14 -5 31 -9 38 -5 6 -4 12 1 12
13 0 10 33 -3 42 -7 5 -6 8 1 8 5 0 10 11 10 25 0 14 -4 25 -9 25 -5 0 -4 6 2
14 9 10 9 16 1 21 -8 5 -8 11 1 21 9 11 9 14 -1 14 -10 0 -10 3 0 15 9 10 9
15 1 15 -13 0 -10 22 4 32 7 5 6 8 -1 8 -16 0 -12 63 5 80 8 8 19 15 24 15 5
0 14 7 20 15 7 8 19 15 27 15 8 0 14 6 12 13 -1 8 2 11 7 8 5 -3 24 9 43 28
35 36 40 37 45 8z"/>
<path d="M6536 12841 c-4 -7 -5 -15 -2 -18 9 -9 19 4 14 18 -4 11 -6 11 -12 0z"/>
<path d="M6517 12773 c-10 -9 -9 -23 1 -23 5 0 9 7 9 15 0 17 -1 18 -10 8z"/>
<path d="M9110 12661 c0 -6 4 -12 8 -15 5 -3 9 1 9 9 0 8 -4 15 -9 15 -4 0 -8
-4 -8 -9z"/>
<path d="M9171 12654 c0 -11 3 -14 6 -6 3 7 2 16 -1 19 -3 4 -6 -2 -5 -13z"/>
<path d="M9198 12518 c5 -5 16 -8 23 -6 8 3 3 7 -10 11 -17 4 -21 3 -13 -5z"/>
<path d="M6299 12443 c-13 -16 -33 -39 -44 -52 l-20 -24 25 13 c26 13 66 50
54 50 -4 0 1 9 11 20 10 11 14 20 8 20 -5 0 -20 -12 -34 -27z"/>
<path d="M9251 12454 c0 -11 3 -14 6 -6 3 7 2 16 -1 19 -3 4 -6 -2 -5 -13z"/>
<path d="M9436 12077 c3 -10 9 -15 12 -12 3 3 0 11 -7 18 -10 9 -11 8 -5 -6z"/>
<path d="M9488 11883 c5 -21 7 -23 10 -9 2 10 0 22 -6 28 -6 6 -7 0 -4 -19z"/>
<path d="M9441 11864 c0 -10 5 -28 10 -39 7 -16 8 -13 5 13 -5 37 -16 57 -15
26z"/>
<path d="M6130 11829 c0 -5 5 -7 10 -4 6 3 10 8 10 11 0 2 -4 4 -10 4 -5 0
-10 -5 -10 -11z"/>
<path d="M6109 11793 c-13 -16 -12 -17 4 -4 9 7 17 15 17 17 0 8 -8 3 -21 -13z"/>
<path d="M9456 11743 c2 -39 1 -53 -6 -43 -8 13 -11 13 -22 1 -8 -9 -9 -11 -1
-7 6 3 14 2 18 -4 3 -5 13 -10 21 -10 8 0 13 4 10 8 -3 5 -6 32 -7 60 -2 29
-6 52 -10 52 -4 0 -5 -26 -3 -57z"/>
<path d="M9490 11789 c0 -5 5 -7 10 -4 6 3 10 8 10 11 0 2 -4 4 -10 4 -5 0
-10 -5 -10 -11z"/>
<path d="M9427 11669 c7 -7 15 -10 18 -7 3 3 -2 9 -12 12 -14 6 -15 5 -6 -5z"/>
<path d="M9460 11651 c0 -25 6 -27 13 -6 4 8 2 17 -3 20 -6 4 -10 -3 -10 -14z"/>
<path d="M6115 11597 c-4 -26 -11 -44 -16 -41 -5 3 -9 -5 -9 -18 0 -18 2 -20
10 -8 9 13 10 13 11 0 0 -8 6 8 14 35 7 28 10 56 5 65 -6 10 -10 -1 -15 -33z"/>
<path d="M9435 11539 c-4 -6 -5 -12 -2 -15 2 -3 7 2 10 11 7 17 1 20 -8 4z"/>
<path d="M6240 11075 c0 -5 5 -17 10 -25 5 -8 10 -10 10 -5 0 6 -5 17 -10 25
-5 8 -10 11 -10 5z"/>
<path d="M6290 10936 c0 -2 8 -10 18 -17 15 -13 16 -12 3 4 -13 16 -21 21 -21
13z"/>
<path d="M6416 10655 c4 -8 11 -15 16 -15 6 0 5 6 -2 15 -7 8 -14 15 -16 15
-2 0 -1 -7 2 -15z"/>
<path d="M6241 7457 c-13 -21 -12 -21 5 -5 10 10 16 20 13 22 -3 3 -11 -5 -18
-17z"/>
<path d="M4447 173 c-4 -3 -7 -11 -7 -17 0 -6 5 -5 12 2 6 6 9 14 7 17 -3 3
-9 2 -12 -2z"/>
</g>
</svg>
